<svg xmlns="http://www.w3.org/2000/svg" xmlns:xlink="http://www.w3.org/1999/xlink" width="192" zoomAndPan="magnify" viewBox="0 0 144 143.999998" height="192" preserveAspectRatio="xMidYMid meet" version="1.0"><defs><clipPath id="ecfde118c5"><path d="M 21.640625 2.539062 L 122.140625 2.539062 L 122.140625 141.289062 L 21.640625 141.289062 Z M 21.640625 2.539062 " clip-rule="nonzero"/></clipPath></defs><g clip-path="url(#ecfde118c5)"><path fill="#0a964c" d="M 63.851562 115.398438 C 61.886719 109.65625 58.289062 104.617188 53.5 100.898438 L 41.726562 91.75 C 29.640625 82.359375 22.300781 68.113281 21.664062 52.808594 C 21.664062 25.046875 44.148438 2.539062 71.890625 2.539062 C 99.628906 2.539062 122.113281 25.046875 122.113281 52.808594 C 121.476562 68.113281 114.136719 82.359375 102.050781 91.75 L 90.277344 100.898438 C 85.488281 104.617188 81.890625 109.65625 79.925781 115.398438 L 78.539062 119.441406 C 77.566406 122.285156 74.894531 124.195312 71.890625 124.195312 C 68.882812 124.195312 66.210938 122.285156 65.238281 119.441406 Z M 71.890625 141.289062 C 60.792969 141.289062 51.800781 139.9375 51.800781 138.273438 C 51.800781 136.605469 60.792969 135.253906 71.890625 135.253906 C 82.984375 135.253906 91.980469 136.605469 91.980469 138.273438 C 91.980469 139.9375 82.984375 141.289062 71.890625 141.289062 Z M 71.890625 92.023438 C 94.082031 92.023438 112.070312 74.015625 112.070312 51.804688 C 112.070312 29.59375 94.082031 11.585938 71.890625 11.585938 C 49.699219 11.585938 31.707031 29.59375 31.707031 51.804688 C 31.707031 74.015625 49.699219 92.023438 71.890625 92.023438 Z M 64.570312 48.339844 L 66.390625 79.820312 C 66.496094 81.695312 64.476562 83.304688 62.199219 83.402344 C 59.917969 83.503906 57.726562 82.074219 57.621094 80.203125 C 57.617188 80.074219 57.617188 79.945312 57.625 79.820312 L 59.445312 48.339844 C 56.226562 47.621094 54.8125 44.746094 54.8125 41.308594 L 54.8125 24.957031 C 54.8125 24.238281 55.398438 23.652344 56.117188 23.652344 C 56.839844 23.652344 57.421875 24.238281 57.421875 24.957031 L 57.421875 38.28125 C 57.421875 38.648438 57.71875 38.941406 58.082031 38.941406 C 58.445312 38.941406 58.738281 38.648438 58.738281 38.28125 L 58.738281 24.957031 C 58.738281 24.238281 59.324219 23.652344 60.042969 23.652344 C 60.765625 23.652344 61.347656 24.238281 61.347656 24.957031 L 61.347656 38.28125 C 61.347656 38.648438 61.644531 38.941406 62.007812 38.941406 C 62.371094 38.941406 62.664062 38.648438 62.664062 38.28125 L 62.664062 24.957031 C 62.664062 24.238281 63.25 23.652344 63.96875 23.652344 C 64.691406 23.652344 65.277344 24.238281 65.277344 24.957031 L 65.277344 38.28125 C 65.277344 38.648438 65.570312 38.941406 65.933594 38.941406 C 66.296875 38.941406 66.589844 38.644531 66.589844 38.28125 L 66.589844 24.957031 C 66.589844 24.238281 67.175781 23.652344 67.894531 23.652344 C 68.617188 23.652344 69.203125 24.238281 69.203125 24.957031 L 69.203125 41.308594 C 69.203125 44.746094 67.789062 47.621094 64.570312 48.339844 Z M 89.96875 56.726562 L 89.96875 79.257812 C 89.96875 81.550781 87.902344 83.410156 85.347656 83.410156 C 82.796875 83.410156 80.726562 81.550781 80.726562 79.257812 L 80.726562 58.574219 L 77.699219 57.578125 L 77.699219 35.566406 C 77.699219 28.984375 82.644531 23.652344 89.96875 23.652344 Z M 89.96875 56.726562 " fill-opacity="1" fill-rule="nonzero"/></g></svg>