<svg xmlns="http://www.w3.org/2000/svg" xmlns:xlink="http://www.w3.org/1999/xlink" width="600" zoomAndPan="magnify" viewBox="0 0 450 74.999997" height="100" preserveAspectRatio="xMidYMid meet" version="1.0"><defs><g/><clipPath id="3efea2e3a8"><path d="M 397.925781 6.757812 L 442.175781 6.757812 L 442.175781 68.257812 L 397.925781 68.257812 Z M 397.925781 6.757812 " clip-rule="nonzero"/></clipPath></defs><g clip-path="url(#3efea2e3a8)"><path fill="#0a964c" d="M 416.511719 56.78125 C 415.644531 54.238281 414.0625 52.003906 411.953125 50.355469 L 406.769531 46.300781 C 401.445312 42.136719 398.214844 35.824219 397.933594 29.042969 C 397.933594 16.734375 407.835938 6.757812 420.050781 6.757812 C 432.265625 6.757812 442.164062 16.734375 442.164062 29.042969 C 441.886719 35.824219 438.652344 42.136719 433.332031 46.300781 L 428.148438 50.355469 C 426.039062 52.003906 424.453125 54.238281 423.589844 56.78125 L 422.980469 58.574219 C 422.550781 59.835938 421.371094 60.683594 420.050781 60.683594 C 418.726562 60.683594 417.550781 59.835938 417.121094 58.574219 Z M 420.050781 68.257812 C 415.164062 68.257812 411.203125 67.660156 411.203125 66.921875 C 411.203125 66.183594 415.164062 65.585938 420.050781 65.585938 C 424.9375 65.585938 428.894531 66.183594 428.894531 66.921875 C 428.894531 67.660156 424.9375 68.257812 420.050781 68.257812 Z M 420.050781 46.421875 C 429.820312 46.421875 437.742188 38.441406 437.742188 28.59375 C 437.742188 18.75 429.820312 10.769531 420.050781 10.769531 C 410.277344 10.769531 402.355469 18.75 402.355469 28.59375 C 402.355469 38.441406 410.277344 46.421875 420.050781 46.421875 Z M 416.828125 27.058594 L 417.628906 41.011719 C 417.675781 41.84375 416.785156 42.558594 415.78125 42.601562 C 414.777344 42.644531 413.8125 42.011719 413.769531 41.183594 C 413.765625 41.125 413.765625 41.070312 413.769531 41.011719 L 414.570312 27.058594 C 413.152344 26.742188 412.53125 25.46875 412.53125 23.945312 L 412.53125 16.695312 C 412.53125 16.375 412.789062 16.117188 413.105469 16.117188 C 413.421875 16.117188 413.679688 16.375 413.679688 16.695312 L 413.679688 22.601562 C 413.679688 22.761719 413.808594 22.894531 413.96875 22.894531 C 414.128906 22.894531 414.257812 22.761719 414.257812 22.601562 L 414.257812 16.695312 C 414.257812 16.375 414.515625 16.117188 414.832031 16.117188 C 415.152344 16.117188 415.410156 16.375 415.410156 16.695312 L 415.410156 22.601562 C 415.410156 22.761719 415.539062 22.894531 415.699219 22.894531 C 415.859375 22.894531 415.988281 22.761719 415.988281 22.601562 L 415.988281 16.695312 C 415.988281 16.375 416.246094 16.117188 416.5625 16.117188 C 416.878906 16.117188 417.136719 16.375 417.136719 16.695312 L 417.136719 22.601562 C 417.136719 22.761719 417.265625 22.894531 417.425781 22.894531 C 417.585938 22.894531 417.714844 22.761719 417.714844 22.601562 L 417.714844 16.695312 C 417.714844 16.375 417.972656 16.117188 418.292969 16.117188 C 418.609375 16.117188 418.867188 16.375 418.867188 16.695312 L 418.867188 23.945312 C 418.867188 25.46875 418.246094 26.742188 416.828125 27.058594 Z M 428.011719 30.777344 L 428.011719 40.765625 C 428.011719 41.78125 427.101562 42.605469 425.976562 42.605469 C 424.851562 42.605469 423.941406 41.78125 423.941406 40.765625 L 423.941406 31.597656 L 422.609375 31.15625 L 422.609375 21.398438 C 422.609375 18.480469 424.785156 16.117188 428.011719 16.117188 Z M 428.011719 30.777344 " fill-opacity="1" fill-rule="nonzero"/></g><g fill="#0a964c" fill-opacity="1"><g transform="translate(8.789071, 54.387775)"><g><path d="M 16.203125 0.46875 L 20.871094 0.46875 L 24.375 -0.375 L 27.691406 -2.054688 L 29.136719 -3.175781 L 29.839844 -3.921875 L 30.539062 -4.484375 L 31.097656 -5.136719 L 31.566406 -5.929688 L 31.984375 -6.769531 L 32.546875 -7.425781 L 33.480469 -10.179688 L 33.855469 -11.953125 L 33.902344 -12.746094 L 34.085938 -13.589844 L 34.085938 -14.523438 L 34.179688 -15.410156 L 34.085938 -17.183594 L 33.621094 -17.976562 L 32.734375 -18.445312 L 31.753906 -18.492188 L 30.773438 -18.632812 L 24.46875 -18.492188 L 21.667969 -18.679688 L 19.890625 -18.539062 L 18.957031 -18.070312 L 18.539062 -17.183594 L 18.539062 -12.746094 L 18.957031 -12 L 19.796875 -11.488281 L 21.152344 -11.394531 L 23.488281 -11.582031 L 24.328125 -11.441406 L 25.027344 -11.113281 L 25.167969 -10.320312 L 24.703125 -9.527344 L 24 -8.730469 L 23.347656 -8.21875 L 21.804688 -7.609375 L 19.984375 -7.191406 L 18.769531 -7.144531 L 16.390625 -7.425781 L 13.867188 -8.453125 L 12.46875 -9.757812 L 11.953125 -10.414062 L 11.066406 -12.09375 L 10.691406 -13.449219 L 10.460938 -14.941406 L 10.414062 -17.652344 L 10.738281 -19.472656 L 11.488281 -21.152344 L 12.933594 -23.347656 L 14.570312 -24.515625 L 15.363281 -24.933594 L 16.25 -25.027344 L 17.042969 -25.402344 L 19.890625 -25.496094 L 21.621094 -25.027344 L 22.507812 -24.65625 L 23.394531 -24.046875 L 23.953125 -23.441406 L 24.5625 -22.648438 L 25.542969 -21.851562 L 26.664062 -21.527344 L 28.109375 -21.480469 L 29.511719 -21.667969 L 31.753906 -21.527344 L 32.921875 -22.039062 L 33.199219 -22.832031 L 32.546875 -24.75 L 32.125 -25.589844 L 30.257812 -28.296875 L 29.230469 -29.136719 L 28.484375 -29.839844 L 27.785156 -30.398438 L 24.515625 -32.125 L 23.535156 -32.3125 L 21.339844 -32.921875 L 16.996094 -33.105469 L 16.0625 -33.058594 L 15.269531 -32.78125 L 14.382812 -32.734375 L 10.785156 -31.425781 L 8.21875 -29.839844 L 6.164062 -28.015625 L 5.558594 -27.269531 L 4.855469 -26.570312 L 4.34375 -25.867188 L 2.613281 -22.367188 L 1.773438 -17.742188 L 1.726562 -16.25 L 1.960938 -12.980469 L 3.269531 -8.59375 L 4.109375 -7.003906 L 5.183594 -5.417969 L 7.050781 -3.457031 L 8.59375 -2.382812 L 11.8125 -0.511719 L 12.609375 -0.28125 L 15.269531 0.1875 Z M 16.203125 0.46875 "/></g></g></g><g fill="#0a964c" fill-opacity="1"><g transform="translate(44.551637, 54.387775)"><g><path d="M 3.503906 -1.355469 L 3.921875 -0.511719 L 5.417969 0.046875 L 21.945312 -0.046875 L 23.253906 -0.511719 L 23.769531 -1.355469 L 23.675781 -2.382812 L 23.722656 -3.316406 L 23.8125 -4.15625 L 23.675781 -5.183594 L 23.8125 -6.070312 L 23.207031 -7.097656 L 22.460938 -7.566406 L 21.433594 -7.425781 L 13.214844 -7.519531 L 12.234375 -7.9375 L 11.953125 -8.964844 L 12 -10.691406 L 11.859375 -11.582031 L 11.90625 -12.609375 L 11.8125 -13.542969 L 11.90625 -14.523438 L 11.859375 -16.855469 L 12 -18.164062 L 11.859375 -19.191406 L 12 -20.171875 L 11.859375 -27.457031 L 11.953125 -28.484375 L 11.859375 -30.773438 L 11.394531 -32.171875 L 10.179688 -32.734375 L 5.324219 -32.640625 L 3.96875 -32.125 L 3.363281 -30.867188 L 3.640625 -28.4375 L 3.546875 -27.550781 L 3.410156 -26.570312 L 3.546875 -25.636719 L 3.640625 -24.75 L 3.503906 -23.722656 L 3.546875 -22.832031 L 3.457031 -21.898438 L 3.59375 -20.917969 L 3.457031 -20.078125 L 3.546875 -19.144531 L 3.410156 -18.257812 L 3.546875 -16.25 L 3.410156 -15.363281 L 3.546875 -13.496094 L 3.410156 -12.5625 L 3.457031 -10.691406 L 3.546875 -9.851562 L 3.503906 -4.15625 L 3.59375 -3.222656 L 3.410156 -2.335938 Z M 3.503906 -1.355469 "/></g></g></g><g fill="#0a964c" fill-opacity="1"><g transform="translate(69.669471, 54.387775)"><g><path d="M 13.773438 0.375 L 16.015625 0.558594 L 18.351562 0.46875 L 20.21875 0.046875 L 21.199219 -0.328125 L 22.132812 -0.558594 L 22.878906 -1.027344 L 23.722656 -1.402344 L 24.46875 -1.914062 L 26.570312 -3.78125 L 27.082031 -4.621094 L 27.691406 -5.324219 L 27.96875 -6.257812 L 28.4375 -7.050781 L 28.765625 -7.9375 L 29.089844 -12.65625 L 28.949219 -16.4375 L 29.136719 -17.417969 L 29.136719 -18.257812 L 28.949219 -19.191406 L 28.902344 -20.078125 L 28.996094 -21.058594 L 28.949219 -22.367188 L 29.042969 -23.8125 L 28.996094 -24.839844 L 29.136719 -25.730469 L 28.996094 -26.664062 L 29.042969 -30.445312 L 28.902344 -31.238281 L 28.53125 -32.265625 L 27.035156 -32.6875 L 22.648438 -32.734375 L 21.621094 -32.3125 L 21.152344 -31.285156 L 21.199219 -26.710938 L 21.105469 -25.777344 L 21.152344 -23.953125 L 21.058594 -22.972656 L 21.199219 -21.992188 L 21.058594 -18.304688 L 21.246094 -17.464844 L 21.152344 -16.4375 L 21.199219 -14.753906 L 21.105469 -13.820312 L 21.152344 -11.441406 L 20.964844 -9.945312 L 20.546875 -9.058594 L 20.125 -8.40625 L 19.378906 -7.703125 L 17.511719 -7.097656 L 16.25 -7.003906 L 14.707031 -7.097656 L 13.867188 -7.332031 L 12.839844 -7.84375 L 12.140625 -8.453125 L 11.582031 -9.105469 L 11.300781 -10.085938 L 11.207031 -18.304688 L 11.066406 -19.238281 L 11.019531 -22.132812 L 11.113281 -22.972656 L 11.113281 -26.710938 L 10.972656 -28.0625 L 10.972656 -28.949219 L 11.207031 -30.351562 L 11.207031 -31.332031 L 10.691406 -32.21875 L 9.574219 -32.640625 L 4.667969 -32.6875 L 3.734375 -32.171875 L 3.316406 -31.238281 L 3.316406 -28.4375 L 3.082031 -27.644531 L 3.269531 -25.683594 L 3.128906 -23.90625 L 3.363281 -21.105469 L 3.175781 -20.21875 L 3.316406 -19.191406 L 3.222656 -18.304688 L 3.269531 -17.371094 L 3.175781 -16.484375 L 3.316406 -14.617188 L 3.269531 -11.253906 L 3.410156 -9.898438 L 3.410156 -8.917969 L 3.6875 -7.984375 L 3.828125 -7.097656 L 4.109375 -6.210938 L 5.042969 -4.621094 L 6.304688 -3.082031 L 6.910156 -2.476562 L 8.5 -1.539062 L 9.199219 -0.980469 L 10.085938 -0.605469 L 11.160156 -0.28125 L 11.859375 0.09375 L 12.886719 0.140625 Z M 13.773438 0.375 "/></g></g></g><g fill="#0a964c" fill-opacity="1"><g transform="translate(101.883786, 54.387775)"><g><path d="M 8.964844 -1.449219 L 9.339844 -0.46875 L 10.320312 0 L 11.207031 -0.09375 L 12.140625 0 L 13.027344 -0.09375 L 15.921875 -0.09375 L 16.855469 -0.46875 L 17.230469 -1.402344 L 17.183594 -2.289062 L 17.277344 -3.363281 L 17.230469 -5.230469 L 17.089844 -6.023438 L 17.230469 -7.003906 L 17.324219 -9.851562 L 17.230469 -10.691406 L 17.371094 -12.65625 L 17.183594 -21.945312 L 17.324219 -22.878906 L 17.230469 -23.90625 L 17.605469 -24.75 L 18.632812 -25.167969 L 19.425781 -25.214844 L 20.359375 -25.167969 L 21.199219 -25.261719 L 23.769531 -25.214844 L 24.839844 -25.636719 L 25.308594 -26.570312 L 25.214844 -27.550781 L 25.308594 -31.378906 L 24.839844 -32.3125 L 23.90625 -32.78125 L 22.789062 -32.6875 L 22.039062 -32.78125 L 21.152344 -32.78125 L 20.125 -32.640625 L 19.191406 -32.640625 L 18.257812 -32.734375 L 17.324219 -32.734375 L 16.25 -32.59375 L 2.335938 -32.6875 L 1.308594 -32.21875 L 0.839844 -31.285156 L 0.792969 -26.617188 L 1.308594 -25.589844 L 2.242188 -25.121094 L 3.457031 -25.261719 L 7.609375 -25.214844 L 8.453125 -24.703125 L 8.917969 -23.8125 L 9.058594 -18.679688 L 8.917969 -17.230469 L 9.011719 -16.34375 L 8.917969 -15.410156 L 8.917969 -13.542969 L 9.058594 -12.1875 L 8.871094 -10.785156 L 8.917969 -9.851562 L 8.871094 -8.871094 L 9.011719 -6.023438 L 8.917969 -5.089844 Z M 8.964844 -1.449219 "/></g></g></g><g fill="#0a964c" fill-opacity="1"><g transform="translate(127.982058, 54.387775)"><g><path d="M 3.363281 -1.355469 L 3.96875 -0.46875 L 4.855469 0.046875 L 15.410156 -0.046875 L 16.25 0.09375 L 19.097656 -0.046875 L 21.945312 0.140625 L 22.832031 0.046875 L 23.8125 -0.421875 L 24.234375 -1.308594 L 24.328125 -2.195312 L 24.28125 -5.089844 L 24.375 -5.976562 L 23.769531 -6.910156 L 22.367188 -7.378906 L 16.203125 -7.472656 L 15.316406 -7.332031 L 14.289062 -7.425781 L 13.261719 -7.332031 L 12.28125 -7.890625 L 11.859375 -9.339844 L 11.90625 -11.628906 L 12.328125 -12.609375 L 13.167969 -13.121094 L 14.988281 -13.121094 L 15.921875 -13.214844 L 18.398438 -13.074219 L 19.660156 -13.167969 L 20.640625 -13.074219 L 21.480469 -13.121094 L 22.414062 -13.636719 L 22.878906 -14.523438 L 22.972656 -18.210938 L 22.878906 -19.144531 L 22.460938 -20.03125 L 21.667969 -20.546875 L 19.796875 -20.59375 L 18.863281 -20.5 L 17.882812 -20.5 L 16.808594 -20.59375 L 13.121094 -20.546875 L 12.328125 -21.058594 L 11.765625 -21.898438 L 11.671875 -23.347656 L 12.140625 -24.703125 L 13.589844 -25.121094 L 22.554688 -25.167969 L 23.535156 -25.683594 L 24.046875 -26.523438 L 23.953125 -28.4375 L 23.8125 -29.324219 L 23.859375 -30.351562 L 24 -31.238281 L 23.535156 -32.171875 L 22.554688 -32.59375 L 18.816406 -32.640625 L 17.976562 -32.546875 L 17.042969 -32.6875 L 14.988281 -32.59375 L 14.054688 -32.6875 L 12.234375 -32.640625 L 11.394531 -32.734375 L 5.277344 -32.59375 L 3.921875 -32.265625 L 3.457031 -31.238281 L 3.546875 -29.371094 L 3.363281 -28.015625 L 3.546875 -25.636719 L 3.457031 -24.65625 L 3.546875 -23.8125 L 3.546875 -15.457031 L 3.410156 -14.476562 L 3.546875 -12.65625 L 3.457031 -10.785156 L 3.59375 -9.804688 L 3.503906 -8.777344 L 3.546875 -7.890625 L 3.410156 -7.050781 L 3.503906 -5.976562 L 3.503906 -5.042969 L 3.59375 -3.222656 L 3.546875 -2.289062 Z M 3.363281 -1.355469 "/></g></g></g><g fill="#0a964c" fill-opacity="1"><g transform="translate(154.733948, 54.387775)"><g><path d="M 27.550781 -0.746094 L 28.902344 -0.140625 L 30.117188 0.234375 L 31.191406 -0.28125 L 31.613281 -1.261719 L 31.847656 -13.960938 L 31.660156 -15.269531 L 31.753906 -16.296875 L 31.566406 -21.898438 L 31.707031 -23.769531 L 31.613281 -24.65625 L 31.613281 -26.523438 L 31.800781 -27.457031 L 31.707031 -28.859375 L 31.800781 -31.285156 L 31.238281 -32.125 L 30.210938 -32.59375 L 29.277344 -32.6875 L 28.390625 -32.6875 L 27.363281 -32.59375 L 26.382812 -32.734375 L 25.542969 -32.640625 L 24.609375 -32.6875 L 23.488281 -32.21875 L 23.019531 -31.238281 L 22.972656 -22.742188 L 23.160156 -21.761719 L 23.160156 -20.871094 L 22.972656 -19.890625 L 23.019531 -18.023438 L 22.789062 -17.277344 L 22.132812 -17.464844 L 20.078125 -19.566406 L 19.378906 -20.125 L 17.742188 -21.804688 L 16.996094 -22.367188 L 16.484375 -23.019531 L 15.503906 -24.046875 L 14.054688 -25.261719 L 13.542969 -25.960938 L 12.65625 -26.570312 L 12.1875 -27.269531 L 11.394531 -27.832031 L 10.785156 -28.625 L 8.265625 -31.191406 L 6.398438 -32.453125 L 5.136719 -32.828125 L 4.015625 -32.265625 L 3.410156 -31.378906 L 3.503906 -24.839844 L 3.410156 -23.90625 L 3.546875 -21.992188 L 3.457031 -21.152344 L 3.503906 -20.171875 L 3.363281 -19.191406 L 3.546875 -12.515625 L 3.457031 -11.671875 L 3.457031 -10.785156 L 3.363281 -9.757812 L 3.363281 -8.871094 L 3.503906 -7.890625 L 3.457031 -5.976562 L 3.546875 -5.042969 L 3.410156 -3.269531 L 3.546875 -2.335938 L 3.546875 -1.449219 L 3.96875 -0.421875 L 4.855469 0.09375 L 6.445312 0 L 8.777344 0.140625 L 9.757812 0 L 10.832031 0.09375 L 11.765625 -0.375 L 12.1875 -1.308594 L 12.046875 -2.242188 L 12.1875 -13.679688 L 12 -14.664062 L 12.46875 -15.222656 L 13.074219 -15.082031 L 19.753906 -8.546875 L 20.5 -7.9375 L 25.027344 -3.410156 L 25.636719 -2.660156 L 26.382812 -2.054688 L 26.941406 -1.355469 Z M 27.550781 -0.746094 "/></g></g></g><g fill="#0a964c" fill-opacity="1"><g transform="translate(189.936257, 54.387775)"><g/></g></g><g fill="#000000" fill-opacity="1"><g transform="translate(202.582027, 54.387775)"><g><path d="M 3.410156 -1.355469 L 3.875 -0.46875 L 4.902344 0 L 8.171875 0.140625 L 10.507812 -0.046875 L 11.488281 -0.46875 L 12.046875 -1.867188 L 11.90625 -3.363281 L 12 -4.25 L 11.953125 -9.199219 L 12.375 -10.132812 L 13.308594 -10.554688 L 14.335938 -10.644531 L 15.316406 -10.460938 L 16.25 -10.644531 L 17.183594 -10.554688 L 18.164062 -10.601562 L 19.097656 -10.507812 L 21.011719 -10.601562 L 21.992188 -11.066406 L 22.460938 -12.515625 L 22.414062 -16.671875 L 21.945312 -17.605469 L 20.964844 -17.976562 L 18.679688 -18.070312 L 16.203125 -17.882812 L 14.382812 -18.117188 L 13.355469 -18.070312 L 12.421875 -18.445312 L 11.90625 -19.425781 L 11.90625 -20.734375 L 12 -21.621094 L 11.90625 -23.722656 L 12.375 -24.65625 L 13.261719 -25.261719 L 14.753906 -25.261719 L 16.109375 -25.167969 L 16.949219 -25.214844 L 17.882812 -25.167969 L 18.863281 -25.261719 L 22.414062 -25.167969 L 23.347656 -25.636719 L 23.8125 -26.570312 L 23.722656 -28.949219 L 23.8125 -30.726562 L 23.253906 -32.125 L 22.460938 -32.640625 L 19.660156 -32.59375 L 18.632812 -32.734375 L 16.808594 -32.640625 L 15.96875 -32.734375 L 14.570312 -32.640625 L 13.636719 -32.6875 L 12.1875 -32.59375 L 10.367188 -32.59375 L 9.527344 -32.6875 L 7.144531 -32.6875 L 6.164062 -32.59375 L 4.855469 -32.640625 L 3.828125 -32.125 L 3.546875 -31.285156 L 3.410156 -29.371094 L 3.546875 -27.96875 L 3.363281 -22.742188 L 3.457031 -21.945312 L 3.503906 -20.964844 L 3.410156 -20.125 L 3.503906 -19.050781 L 3.410156 -18.210938 L 3.363281 -17.324219 L 3.457031 -16.4375 L 3.363281 -15.363281 Z M 3.410156 -1.355469 "/></g></g></g><g fill="#000000" fill-opacity="1"><g transform="translate(228.02667, 54.387775)"><g><path d="M 3.59375 -1.496094 L 3.921875 -0.46875 L 4.855469 0 L 5.742188 0.046875 L 7.65625 -0.09375 L 8.636719 0 L 10.039062 0 L 11.488281 -0.46875 L 11.8125 -1.355469 L 11.90625 -2.335938 L 11.71875 -3.316406 L 11.859375 -5.324219 L 11.765625 -8.21875 L 12.1875 -9.152344 L 13.121094 -9.621094 L 13.960938 -9.621094 L 14.800781 -9.664062 L 15.96875 -9.292969 L 16.71875 -8.5 L 17.929688 -6.863281 L 18.257812 -5.976562 L 19.566406 -3.640625 L 20.171875 -2.753906 L 20.59375 -1.960938 L 21.152344 -1.214844 L 22.085938 -0.375 L 23.253906 -0.09375 L 24.933594 0 L 25.960938 -0.09375 L 26.894531 0 L 28.765625 0 L 29.792969 -0.09375 L 30.773438 -0.328125 L 30.957031 -1.308594 L 30.351562 -2.476562 L 28.859375 -4.761719 L 28.4375 -5.558594 L 27.875 -6.398438 L 27.410156 -7.238281 L 26.804688 -7.984375 L 25.402344 -10.414062 L 25.261719 -11.535156 L 25.777344 -12.515625 L 27.082031 -13.773438 L 27.644531 -14.570312 L 27.96875 -15.457031 L 28.484375 -16.296875 L 28.8125 -17.089844 L 29.324219 -18.863281 L 29.371094 -22.554688 L 29.136719 -23.441406 L 28.996094 -24.328125 L 28.765625 -25.261719 L 27.503906 -27.832031 L 26.851562 -28.53125 L 26.429688 -29.230469 L 24.09375 -31.003906 L 22.460938 -31.847656 L 18.585938 -32.640625 L 17.417969 -32.734375 L 16.0625 -32.6875 L 15.035156 -32.734375 L 14.101562 -32.640625 L 13.074219 -32.734375 L 12.28125 -32.640625 L 9.480469 -32.734375 L 8.59375 -32.59375 L 6.675781 -32.78125 L 5.789062 -32.640625 L 4.761719 -32.6875 L 3.875 -32.265625 L 3.503906 -31.285156 L 3.363281 -18.210938 L 3.503906 -16.855469 L 3.503906 -14.523438 L 3.410156 -13.542969 L 3.363281 -11.765625 L 3.503906 -10.738281 L 3.363281 -8.824219 L 3.546875 -6.117188 L 3.457031 -5.136719 Z M 13.121094 -17.183594 L 12.328125 -17.605469 L 11.859375 -18.585938 L 11.71875 -23.8125 L 12.28125 -24.75 L 13.214844 -25.214844 L 13.960938 -25.261719 L 16.53125 -25.214844 L 18.679688 -24.933594 L 20.125 -24.046875 L 20.59375 -23.347656 L 20.917969 -22.601562 L 21.011719 -21.246094 L 20.871094 -19.984375 L 20.5 -19.050781 L 19.984375 -18.257812 L 19.425781 -17.699219 L 18.726562 -17.371094 L 15.082031 -17.042969 L 14.148438 -17.183594 Z M 13.121094 -17.183594 "/></g></g></g><g fill="#000000" fill-opacity="1"><g transform="translate(260.381049, 54.387775)"><g><path d="M 3.363281 -1.355469 L 3.96875 -0.46875 L 4.855469 0.046875 L 15.410156 -0.046875 L 16.25 0.09375 L 19.097656 -0.046875 L 21.945312 0.140625 L 22.832031 0.046875 L 23.8125 -0.421875 L 24.234375 -1.308594 L 24.328125 -2.195312 L 24.28125 -5.089844 L 24.375 -5.976562 L 23.769531 -6.910156 L 22.367188 -7.378906 L 16.203125 -7.472656 L 15.316406 -7.332031 L 14.289062 -7.425781 L 13.261719 -7.332031 L 12.28125 -7.890625 L 11.859375 -9.339844 L 11.90625 -11.628906 L 12.328125 -12.609375 L 13.167969 -13.121094 L 14.988281 -13.121094 L 15.921875 -13.214844 L 18.398438 -13.074219 L 19.660156 -13.167969 L 20.640625 -13.074219 L 21.480469 -13.121094 L 22.414062 -13.636719 L 22.878906 -14.523438 L 22.972656 -18.210938 L 22.878906 -19.144531 L 22.460938 -20.03125 L 21.667969 -20.546875 L 19.796875 -20.59375 L 18.863281 -20.5 L 17.882812 -20.5 L 16.808594 -20.59375 L 13.121094 -20.546875 L 12.328125 -21.058594 L 11.765625 -21.898438 L 11.671875 -23.347656 L 12.140625 -24.703125 L 13.589844 -25.121094 L 22.554688 -25.167969 L 23.535156 -25.683594 L 24.046875 -26.523438 L 23.953125 -28.4375 L 23.8125 -29.324219 L 23.859375 -30.351562 L 24 -31.238281 L 23.535156 -32.171875 L 22.554688 -32.59375 L 18.816406 -32.640625 L 17.976562 -32.546875 L 17.042969 -32.6875 L 14.988281 -32.59375 L 14.054688 -32.6875 L 12.234375 -32.640625 L 11.394531 -32.734375 L 5.277344 -32.59375 L 3.921875 -32.265625 L 3.457031 -31.238281 L 3.546875 -29.371094 L 3.363281 -28.015625 L 3.546875 -25.636719 L 3.457031 -24.65625 L 3.546875 -23.8125 L 3.546875 -15.457031 L 3.410156 -14.476562 L 3.546875 -12.65625 L 3.457031 -10.785156 L 3.59375 -9.804688 L 3.503906 -8.777344 L 3.546875 -7.890625 L 3.410156 -7.050781 L 3.503906 -5.976562 L 3.503906 -5.042969 L 3.59375 -3.222656 L 3.546875 -2.289062 Z M 3.363281 -1.355469 "/></g></g></g><g fill="#000000" fill-opacity="1"><g transform="translate(287.132938, 54.387775)"><g><path d="M 3.363281 -1.355469 L 3.96875 -0.46875 L 4.855469 0.046875 L 15.410156 -0.046875 L 16.25 0.09375 L 19.097656 -0.046875 L 21.945312 0.140625 L 22.832031 0.046875 L 23.8125 -0.421875 L 24.234375 -1.308594 L 24.328125 -2.195312 L 24.28125 -5.089844 L 24.375 -5.976562 L 23.769531 -6.910156 L 22.367188 -7.378906 L 16.203125 -7.472656 L 15.316406 -7.332031 L 14.289062 -7.425781 L 13.261719 -7.332031 L 12.28125 -7.890625 L 11.859375 -9.339844 L 11.90625 -11.628906 L 12.328125 -12.609375 L 13.167969 -13.121094 L 14.988281 -13.121094 L 15.921875 -13.214844 L 18.398438 -13.074219 L 19.660156 -13.167969 L 20.640625 -13.074219 L 21.480469 -13.121094 L 22.414062 -13.636719 L 22.878906 -14.523438 L 22.972656 -18.210938 L 22.878906 -19.144531 L 22.460938 -20.03125 L 21.667969 -20.546875 L 19.796875 -20.59375 L 18.863281 -20.5 L 17.882812 -20.5 L 16.808594 -20.59375 L 13.121094 -20.546875 L 12.328125 -21.058594 L 11.765625 -21.898438 L 11.671875 -23.347656 L 12.140625 -24.703125 L 13.589844 -25.121094 L 22.554688 -25.167969 L 23.535156 -25.683594 L 24.046875 -26.523438 L 23.953125 -28.4375 L 23.8125 -29.324219 L 23.859375 -30.351562 L 24 -31.238281 L 23.535156 -32.171875 L 22.554688 -32.59375 L 18.816406 -32.640625 L 17.976562 -32.546875 L 17.042969 -32.6875 L 14.988281 -32.59375 L 14.054688 -32.6875 L 12.234375 -32.640625 L 11.394531 -32.734375 L 5.277344 -32.59375 L 3.921875 -32.265625 L 3.457031 -31.238281 L 3.546875 -29.371094 L 3.363281 -28.015625 L 3.546875 -25.636719 L 3.457031 -24.65625 L 3.546875 -23.8125 L 3.546875 -15.457031 L 3.410156 -14.476562 L 3.546875 -12.65625 L 3.457031 -10.785156 L 3.59375 -9.804688 L 3.503906 -8.777344 L 3.546875 -7.890625 L 3.410156 -7.050781 L 3.503906 -5.976562 L 3.503906 -5.042969 L 3.59375 -3.222656 L 3.546875 -2.289062 Z M 3.363281 -1.355469 "/></g></g></g><g fill="#000000" fill-opacity="1"><g transform="translate(313.884828, 54.387775)"><g/></g></g><g fill="#000000" fill-opacity="1"><g transform="translate(326.537117, 54.387775)"><g><path d="M 4.855469 0.140625 L 5.789062 0 L 7.609375 0.09375 L 8.636719 -0.046875 L 10.132812 0.046875 L 11.441406 -0.511719 L 12 -1.355469 L 11.859375 -6.257812 L 12 -7.703125 L 11.953125 -8.683594 L 12.046875 -10.367188 L 11.953125 -11.394531 L 11.953125 -13.214844 L 12.375 -13.636719 L 12.839844 -13.449219 L 13.589844 -12.839844 L 14.148438 -12.140625 L 16.0625 -10.226562 L 16.671875 -9.480469 L 17.929688 -8.265625 L 18.910156 -7.566406 L 19.9375 -7.519531 L 20.871094 -8.21875 L 21.527344 -8.917969 L 22.085938 -9.480469 L 23.394531 -11.019531 L 24.046875 -11.488281 L 25.960938 -13.449219 L 26.570312 -13.726562 L 26.941406 -13.027344 L 26.851562 -10.460938 L 26.988281 -8.59375 L 26.894531 -6.769531 L 26.988281 -5.042969 L 26.894531 -4.203125 L 26.988281 -2.101562 L 26.988281 -1.402344 L 27.363281 -0.328125 L 28.34375 -0.046875 L 33.992188 0.140625 L 34.972656 -0.375 L 35.535156 -1.726562 L 35.394531 -4.15625 L 35.488281 -5.089844 L 35.394531 -19.097656 L 35.488281 -20.125 L 35.441406 -24.75 L 35.488281 -25.636719 L 35.394531 -27.644531 L 35.441406 -28.4375 L 35.394531 -30.351562 L 35.488281 -31.238281 L 34.929688 -32.21875 L 33.945312 -32.734375 L 32.59375 -32.3125 L 31.613281 -31.707031 L 29.652344 -29.652344 L 29.042969 -28.902344 L 28.484375 -28.390625 L 27.832031 -27.550781 L 23.722656 -23.347656 L 23.113281 -22.554688 L 20.265625 -19.660156 L 19.425781 -19.097656 L 18.445312 -19.472656 L 17.882812 -20.265625 L 17.230469 -20.917969 L 16.390625 -21.992188 L 15.363281 -22.925781 L 11.113281 -27.644531 L 10.460938 -28.203125 L 9.246094 -29.652344 L 8.5 -30.304688 L 7.285156 -31.566406 L 6.210938 -32.359375 L 4.902344 -32.734375 L 3.875 -32.265625 L 3.363281 -31.285156 L 3.503906 -28.4375 L 3.363281 -26.617188 L 3.457031 -25.777344 L 3.410156 -18.304688 L 3.503906 -17.371094 L 3.363281 -12.65625 L 3.457031 -11.765625 L 3.410156 -1.449219 L 3.921875 -0.46875 Z M 4.855469 0.140625 "/></g></g></g><g fill="#000000" fill-opacity="1"><g transform="translate(365.567795, 54.387775)"><g><path d="M 3.363281 -1.355469 L 3.96875 -0.46875 L 4.855469 0.046875 L 15.410156 -0.046875 L 16.25 0.09375 L 19.097656 -0.046875 L 21.945312 0.140625 L 22.832031 0.046875 L 23.8125 -0.421875 L 24.234375 -1.308594 L 24.328125 -2.195312 L 24.28125 -5.089844 L 24.375 -5.976562 L 23.769531 -6.910156 L 22.367188 -7.378906 L 16.203125 -7.472656 L 15.316406 -7.332031 L 14.289062 -7.425781 L 13.261719 -7.332031 L 12.28125 -7.890625 L 11.859375 -9.339844 L 11.90625 -11.628906 L 12.328125 -12.609375 L 13.167969 -13.121094 L 14.988281 -13.121094 L 15.921875 -13.214844 L 18.398438 -13.074219 L 19.660156 -13.167969 L 20.640625 -13.074219 L 21.480469 -13.121094 L 22.414062 -13.636719 L 22.878906 -14.523438 L 22.972656 -18.210938 L 22.878906 -19.144531 L 22.460938 -20.03125 L 21.667969 -20.546875 L 19.796875 -20.59375 L 18.863281 -20.5 L 17.882812 -20.5 L 16.808594 -20.59375 L 13.121094 -20.546875 L 12.328125 -21.058594 L 11.765625 -21.898438 L 11.671875 -23.347656 L 12.140625 -24.703125 L 13.589844 -25.121094 L 22.554688 -25.167969 L 23.535156 -25.683594 L 24.046875 -26.523438 L 23.953125 -28.4375 L 23.8125 -29.324219 L 23.859375 -30.351562 L 24 -31.238281 L 23.535156 -32.171875 L 22.554688 -32.59375 L 18.816406 -32.640625 L 17.976562 -32.546875 L 17.042969 -32.6875 L 14.988281 -32.59375 L 14.054688 -32.6875 L 12.234375 -32.640625 L 11.394531 -32.734375 L 5.277344 -32.59375 L 3.921875 -32.265625 L 3.457031 -31.238281 L 3.546875 -29.371094 L 3.363281 -28.015625 L 3.546875 -25.636719 L 3.457031 -24.65625 L 3.546875 -23.8125 L 3.546875 -15.457031 L 3.410156 -14.476562 L 3.546875 -12.65625 L 3.457031 -10.785156 L 3.59375 -9.804688 L 3.503906 -8.777344 L 3.546875 -7.890625 L 3.410156 -7.050781 L 3.503906 -5.976562 L 3.503906 -5.042969 L 3.59375 -3.222656 L 3.546875 -2.289062 Z M 3.363281 -1.355469 "/></g></g></g></svg>